Simulation
nRows=27
nColumns=15
endheader
time  TH_x TH_y TH_z SC_y  SC_z  SC_x  AC_y  AC_z  AC_x  GH_y  GH_z  GH_yy  EL_x  PS_y
1.3999999999999986  0.000000  0.000000  0.000000  -33.02040251756821  10.570511042741712  33.25890993507963  52.2131823746163  10.079891972507545  7.576926161727841  0.41911920363253946  57.41239102002753  7.32393634080422  13.744833954370172  120.000000
1.4279999999999986  0.000000  0.000000  0.000000  -33.15076073174297  10.647998522339925  33.66998930275846  52.28381221904892  9.826120828895915  7.588253723079234  0.3952995443988863  57.53347158824116  7.394180810036222  13.703738747630815  120.000000
1.4559999999999986  0.000000  0.000000  0.000000  -33.224909520472316  10.704602982711874  33.96795263404789  52.34951413995296  9.600281621882962  7.5136472100701726  0.43983484974980136  57.59154325967023  7.471686232749873  13.610747873472414  120.000000
1.4839999999999987  0.000000  0.000000  0.000000  -33.23780822834731  10.732689869046236  34.15387990287891  52.40917473601152  9.407543857787388  7.35301147171924  0.5449160549209668  57.563551213930616  7.549215531034972  13.484224919156036  120.000000
1.5119999999999985  0.000000  0.000000  0.000000  -33.186642466256735  10.727727732829852  34.22477151893088  52.46223580841214  9.250453157447708  7.106154462300509  0.7048540170658358  57.428824887400175  7.614667854866236  13.339888803992471  120.000000
1.5399999999999985  0.000000  0.000000  0.000000  -33.077528028629644  10.688421666771445  34.18234998386957  52.5087900606083  9.12828234573784  6.773569533387686  0.9177000923664649  57.16892084193373  7.652831441641773  13.189584377736692  120.000000
1.5679999999999985  0.000000  0.000000  0.000000  -32.91637837668473  10.614910051659963  34.02448617315253  52.54779516611755  9.040594521442754  6.357967738209089  1.1842112095019524  56.7733660167909  7.645652441733733  13.041359820949367  120.000000
1.5959999999999985  0.000000  0.000000  0.000000  -32.71497295240578  10.51116564650191  33.75393284909828  52.57902967543994  8.98519708018008  5.8642841135217845  1.5077340644288524  56.235180659631794  7.57597577312763  12.900643845372576  120.000000
1.6239999999999983  0.000000  0.000000  0.000000  -32.47943090037144  10.378972982350652  33.367638780233236  52.602443606886695  8.959054269140564  5.300551517674178  1.8921111398548882  55.553827964626294  7.429653334377287  12.771329764264031  120.000000
1.6519999999999984  0.000000  0.000000  0.000000  -32.21736240661775  10.220631908513337  32.86391015512641  52.619179150335405  8.956740923067647  4.678000698759059  2.3401499805032073  54.7298874944575  7.1989354580140255  12.65632270958553  120.000000
1.6799999999999984  0.000000  0.000000  0.000000  -31.931208657098296  10.035648111022468  32.2360477577831  52.63093658434821  8.97404345056659  4.011463648082632  2.85131550709459  53.77006711924316  6.883585130970967  12.55725334203826  120.000000
1.7079999999999984  0.000000  0.000000  0.000000  -31.62598694675589  9.823930875814614  31.48330730226498  52.63988141552164  9.006315395278952  3.3189808392525584  3.422464419305895  52.68538907184793  6.490762585723899  12.47445714552747  120.000000
1.7359999999999982  0.000000  0.000000  0.000000  -31.305067388284275  9.584410343042117  30.603852664334546  52.64822593596871  9.048361498641079  2.621041293486993  4.04862358866984  51.49528041792181  6.034510676953848  12.407630231829156  120.000000
1.7639999999999982  0.000000  0.000000  0.000000  -30.976500195961112  9.31787325885823  29.60461259030894  52.65754352578675  9.093037204372136  1.9382933423266426  4.723885335871343  50.221283731975646  5.534685528066592  12.355898332759892  120.000000
1.7919999999999983  0.000000  0.000000  0.000000  -30.646740857626348  9.02530469005137  28.489336265979645  52.6675074239125  9.134108579392052  1.2914537272186843  5.441748873515367  48.88933975537606  5.016363895140984  12.31826085869707  120.000000
1.8199999999999983  0.000000  0.000000  0.000000  -30.325504873352447  8.709856601899489  27.26811041728762  52.67550494763678  9.165335914166466  0.6996910449269633  6.195608583601569  47.52161566439266  4.5080075551342444  12.293661990970106  120.000000
1.8479999999999983  0.000000  0.000000  0.000000  -30.018549579840208  8.374441970532878  25.94744961741042  52.67599146812998  9.183450979925066  0.18096686985281102  6.97852985754424  46.13892212234738  4.039960941957527  12.281030469166422  120.000000
1.8759999999999981  0.000000  0.000000  0.000000  -29.731911639203563  8.024117711677214  24.542797742095  52.66157246727338  9.186101763902485  -0.25084717091730896  7.782015111830576  44.754604774180294  3.6427989752610546  12.27871189149868  120.000000
1.9039999999999981  0.000000  0.000000  0.000000  -29.46638470095981  7.665023061328264  23.06856062707207  52.62434921506047  9.174816531456404  -0.5857467726050657  8.59606173033696  43.377844106432526  3.344984421919897  12.284252216259025  120.000000
1.9319999999999982  0.000000  0.000000  0.000000  -29.220778634949433  7.305569985250975  21.546760928504824  52.55763012794586  9.150578972362151  -0.8199059660473483  9.408240046616573  42.00847630996996  3.1718070893274075  12.29351146594001  120.000000
1.9599999999999982  0.000000  0.000000  0.000000  -28.987774312506414  6.953038347784036  19.99553603307573  52.456936659114696  9.114627432693396  -0.9535000341211001  10.205884715868468  40.64073918997807  3.142042797020227  12.301021254085446  120.000000
1.987999999999998  0.000000  0.000000  0.000000  -28.75767482673171  6.616197492559497  18.437953785088098  52.321056805912036  9.065648686797255  -0.9918450228601415  10.976850865704645  39.262870717251865  3.267576487057805  12.300252802031817  120.000000
2.0159999999999982  0.000000  0.000000  0.000000  -28.517566065587356  6.304123111721611  16.89487337631791  52.15153723179408  9.003146893147989  -0.9424556120939497  11.71307801965598  37.863358839973166  3.5498429292799756  12.285460439467084  120.000000
2.043999999999998  0.000000  0.000000  0.000000  -28.25675915646943  6.025532381450659  15.390282059806797  51.950956995557696  8.927372721309949  -0.8160240824754913  12.40828469386085  36.43162702864438  3.9834610110706445  12.252098879424034  120.000000
2.071999999999998  0.000000  0.000000  0.000000  -27.96684678248912  5.788084627682589  13.943790371574574  51.723484364671016  8.84143481983734  -0.6255647921641033  13.059622132247064  34.96132896471363  4.554843175605733  12.198778414424483  120.000000
2.099999999999998  0.000000  0.000000  0.000000  -27.64689553769257  5.595799251992155  12.573728940560002  51.47501129257183  8.751195010814685  -0.38500328231414005  13.667999993341132  33.450688276896166  5.244891145263588  12.128133835239757  120.000000
2.127999999999998  0.000000  0.000000  0.000000  -27.29893031312847  5.448581544559719  11.294014345445808  51.212963175454874  8.6641966138187  -0.10812763549611042  14.2388088847454  31.90394532567495  6.028909608636412  12.047111458138826  120.000000
